# xmcd
#
# Track frame offsets:
#	150
#	10989
#	23587
#	37318
#	57349
#	71380
#	85636
#	106868
#	119316
#	131838
#	149169
#	163501
#	184582
#	199363
#
# Disc length: 2801 seconds
#
# Revision: 1
# Processed by: cddbd v1.5.2PL0 Copyright (c) Steve Scherf et al.
# Submitted via: audiograbber 1.83.01
#
DISCID=c50aef0e
DTITLE=Bluegrass Ramblers - Blue and Lonesome
DYEAR=2001
DGENRE=Country
TTITLE0=Am I a fool
TTITLE1=Picture in a Tear
TTITLE2=Backtrackin
TTITLE3=Cold cold heart
TTITLE4=Looking for yourself
TTITLE5=Heartbreak Game
TTITLE6=Highway of Pain
TTITLE7=Blue Train
TTITLE8=Think what you've done
TTITLE9=Weary Blues from Waiting
TTITLE10=Blue and Lonsome
TTITLE11=Northern Rail
TTITLE12=Until the day I die
TTITLE13=Head over heels
EXTD=
EXTT0=
EXTT1=
EXTT2=
EXTT3=
EXTT4=
EXTT5=
EXTT6=
EXTT7=
EXTT8=
EXTT9=
EXTT10=
EXTT11=
EXTT12=
EXTT13=
PLAYORDER=
